<?xml version="1.0" encoding="utf-8"?>
<!-- Generator: Adobe Illustrator 26.0.1, SVG Export Plug-In . SVG Version: 6.00 Build 0)  -->
<svg version="1.1" id="_x32_" xmlns="http://www.w3.org/2000/svg" xmlns:xlink="http://www.w3.org/1999/xlink" x="0px" y="0px"
	 viewBox="0 0 800 800" style="enable-background:new 0 0 800 800;" xml:space="preserve">
<style type="text/css">
	.st0{opacity:0.3;}
	.st1{fill:#FFFFFF;}
</style>
<g class="st0">
	<path class="st1" d="M332.3,398l45.2-45.2c-52.6-24.2-116.9-14.6-160.1,28.6c-55.5,55.5-55.5,145.7,0,201.2
		c55.5,55.5,145.7,55.5,201.2,0c43.2-43.2,52.8-107.6,28.6-160.2L402,467.6c4.5,26.4-3.4,54.4-23.7,74.7
		c-33.3,33.3-87.4,33.3-120.7,0c-33.3-33.3-33.3-87.4,0-120.7C277.9,401.3,306,393.5,332.3,398z"/>
	<path class="st1" d="M489.3,380.4c45.3,76.4,35.2,176.8-30.5,242.5c-77.7,77.7-204,77.7-281.7,0c-77.7-77.7-77.7-204,0-281.7
		c65.6-65.6,166.1-75.8,242.5-30.5l41.2-41.2c-99.5-66.9-236-56.5-323.9,31.4c-99.9,99.8-99.9,262.3,0,362.2
		c99.9,99.9,262.3,99.9,362.2,0c87.9-87.9,98.4-224.4,31.4-324L489.3,380.4z"/>
	<path class="st1" d="M737.1,174c-2.1-5.5-7.5-9-13.6-8.7l-93.2,4.4l4.4-93.2c0.3-6.1-3.1-11.5-8.7-13.6c-5.5-2.1-12-0.6-16.5,3.9
		L510,166.2l-5,107.4L324.3,454.3c-9.2-2.1-19.2,0.4-26.4,7.5c-11.1,11.1-11.1,29.1,0,40.2c11.1,11.1,29.1,11.1,40.2,0
		c7.2-7.2,9.6-17.2,7.5-26.4L526.4,295l107.4-5l99.4-99.4C737.7,186.1,739.2,179.5,737.1,174z"/>
</g>
</svg>
