<?xml version="1.0" encoding="utf-8"?>
<!-- Generator: Adobe Illustrator 26.0.1, SVG Export Plug-In . SVG Version: 6.00 Build 0)  -->
<svg version="1.1" id="Layer_1" xmlns="http://www.w3.org/2000/svg" xmlns:xlink="http://www.w3.org/1999/xlink" x="0px" y="0px"
	 viewBox="0 0 800 800" style="enable-background:new 0 0 800 800;" xml:space="preserve">
<g style="opacity:0.3;">
	<g>
		<g>
			<path style="fill:#FFFFFF;" d="M758.7,358.4c-1.5-3.7-3.7-7-6.5-9.8L662,258.4c-11.8-11.7-30.8-11.7-42.5,0
				c-11.8,11.8-11.8,30.8,0,42.5l38.9,38.9h-168c-16.6,0-30.1,13.5-30.1,30.1s13.4,30.1,30.1,30.1h168l-38.9,38.9
				c-11.8,11.8-11.8,30.8,0,42.5c5.9,5.9,13.6,8.8,21.3,8.8s15.4-2.9,21.3-8.8l90.2-90.2c2.8-2.8,5-6.1,6.5-9.8
				C761.7,374.1,761.7,365.8,758.7,358.4z"/>
			<path style="fill:#FFFFFF;" d="M550.4,460.2c-16.6,0-30.1,13.5-30.1,30.1v150.4H400V159.3c0-13.3-8.7-25-21.4-28.8L274.1,99.2
				h246.3v150.4c0,16.6,13.4,30.1,30.1,30.1s30.1-13.5,30.1-30.1V69.1c0-16.6-13.4-30.1-30.1-30.1H69.1c-1.1,0-2,0.5-3.1,0.6
				c-1.4,0.2-2.7,0.4-4.1,0.7c-3.2,0.8-6,2-8.7,3.7c-0.7,0.4-1.5,0.5-2.1,0.9c-0.2,0.2-0.3,0.5-0.6,0.7c-3.3,2.6-6,5.7-8,9.5
				c-0.4,0.8-0.5,1.7-0.8,2.5c-1,2.3-2,4.5-2.4,7c-0.2,0.9,0.1,1.7,0.1,2.6c0,0.6-0.4,1.1-0.4,1.7v601.7c0,14.3,10.1,26.7,24.2,29.5
				L364,760.4c2,0.4,3.9,0.6,5.9,0.6c6.9,0,13.7-2.4,19.1-6.8c6.9-5.7,11-14.2,11-23.3v-30.1h150.4c16.6,0,30.1-13.5,30.1-30.1
				V490.3C580.5,473.6,567.1,460.2,550.4,460.2z"/>
		</g>
	</g>
</g>
</svg>
