<?xml version="1.0" encoding="utf-8"?>
<!-- Generator: Adobe Illustrator 26.0.1, SVG Export Plug-In . SVG Version: 6.00 Build 0)  -->
<svg version="1.1" id="Capa_1" xmlns="http://www.w3.org/2000/svg" xmlns:xlink="http://www.w3.org/1999/xlink" x="0px" y="0px"
	 viewBox="0 0 800 800" style="enable-background:new 0 0 800 800;" xml:space="preserve">
<style type="text/css">
	.st0{opacity:0.3;}
	.st1{fill:#FFFFFF;}
</style>
<g class="st0">
	<path class="st1" d="M300,633.3H133.3c-18.4,0-33.3-14.9-33.3-33.3s14.9-33.3,33.3-33.3H300c18.4,0,33.3,14.9,33.3,33.3
		S318.4,633.3,300,633.3z M466.7,433.3H133.3c-18.4,0-33.3-14.9-33.3-33.3s14.9-33.3,33.3-33.3h333.3c18.4,0,33.3,14.9,33.3,33.3
		S485.1,433.3,466.7,433.3z M666.7,233.3H133.3c-18.4,0-33.3-14.9-33.3-33.3s14.9-33.3,33.3-33.3h533.3c18.4,0,33.3,14.9,33.3,33.3
		S685.1,233.3,666.7,233.3z"/>
</g>
</svg>
