<?xml version="1.0" encoding="utf-8"?>
<!-- Generator: Adobe Illustrator 26.0.1, SVG Export Plug-In . SVG Version: 6.00 Build 0)  -->
<svg version="1.1" id="Capa_1" xmlns="http://www.w3.org/2000/svg" xmlns:xlink="http://www.w3.org/1999/xlink" x="0px" y="0px"
	 viewBox="0 0 800 800" style="enable-background:new 0 0 800 800;" xml:space="preserve">
<style type="text/css">
	.st0{opacity:0.3;}
	.st1{fill:#FFFFFF;}
</style>
<g class="st0">
	<path class="st1" d="M488.9,507.4c13.5-22.5,33.3-34.1,59.6-34.4c26.3-0.3,39.5-13.7,40-40c0.4-26.2,11.8-46,34.3-59.5
		c22.6-13.5,27.5-31.6,14.6-54.6c-12.8-22.9-12.8-45.8,0-68.8c12.9-22.9,8-41-14.6-54.5c-22.5-13.5-34-33.3-34.3-59.6
		c-0.4-26.2-13.7-39.6-40-39.9c-26.3-0.4-46.1-11.8-59.6-34.4c-13.5-22.6-31.6-27.5-54.5-14.6c-22.9,12.8-45.9,12.8-68.8,0
		c-22.9-12.8-41.1-8-54.5,14.6c-13.4,22.6-33.3,34-59.6,34.4c-26.2,0.3-39.5,13.7-39.9,39.9c-0.4,26.3-11.8,46.1-34.4,59.6
		c-22.6,13.5-27.5,31.5-14.6,54.5c12.9,23,12.9,45.9,0,68.8c-12.9,23-8,41.1,14.6,54.6c22.5,13.4,34,33.2,34.4,59.5
		c0.4,26.3,13.7,39.7,39.9,40c26.3,0.3,46.1,11.8,59.6,34.4c13.5,22.6,31.6,27.5,54.5,14.6c22.9-12.7,45.9-12.7,68.8,0
		C457.3,534.9,475.5,530,488.9,507.4z M400.1,428.4c-79.5,0-143.8-64.4-143.8-143.8c0-79.4,64.4-143.8,143.8-143.8
		c79.4,0,143.8,64.4,143.8,143.8C543.9,364,479.5,428.4,400.1,428.4z"/>
	<path class="st1" d="M249.3,494.1c-27.6,0-31.3-12.9-31.3-12.9L110,693.4l86.5-9.7l47.9,72c0,0,99.7-208,99.7-206.7
		C292.4,547.7,313,495.5,249.3,494.1z"/>
	<path class="st1" d="M580.7,489.6c-78.8,8.2-62.8,27.8-80.8,43c-20.7,22.1-46.7,17.8-46.7,17.8l121.7,209.4l29.9-77.6l85.1,11.1
		L580.7,489.6z"/>
	<polygon class="st1" points="430.1,252.8 400,191.9 369.9,252.8 302.5,262.7 351.2,310.2 339.7,377.3 400,345.6 460.3,377.3 
		448.8,310.2 497.5,262.7 	"/>
</g>
</svg>
