<?xml version="1.0" encoding="utf-8"?>
<svg version="1.1" xmlns="http://www.w3.org/2000/svg" xmlns:xlink="http://www.w3.org/1999/xlink" x="0px" y="0px"
	 viewBox="0 0 247.7 90.4" enable-background="new 0 0 247.7 90.4" xml:space="preserve">
<g id="Layer_3">
	<g id="background">
		<path fill="#D4224E" d="M24.9,85.9c-5.1,2.2-11,0.3-13.2-4.4c-2.7-5.8-4.1-8.7-6.9-14.6c-2.2-4.7,0.6-10.8,6.4-13.2
			c7.2-3,10.8-4.4,18.1-7c1.5-0.5,2.4-2,2-3.3c-2-6.1-3.1-9.2-5.1-15.3c-1.7-4.9,2.3-10.8,8.8-12.7c59.4-16,118.2-16,177.7,0
			c6.6,1.9,10.5,7.7,8.8,12.7c-2,6.1-3.1,9.2-5.1,15.3c-0.4,1.3,0.5,2.7,2,3.3c7.3,2.5,10.9,3.9,18.1,7c5.8,2.5,8.6,8.5,6.4,13.2
			c-2.7,5.8-4.1,8.7-6.9,14.6c-2.2,4.7-8.1,6.6-13.2,4.4C157.4,60.2,90.3,60.2,24.9,85.9z"/>
		<path fill="#FFFFFF" d="M211.7,18.9c4.1,1.2,6.6,4.8,5.6,7.9c-2,6.1-2.9,9.2-4.9,15.3c-1,3.1,1.2,6.6,4.9,7.9
			c7.2,2.5,10.8,3.9,17.9,6.9c3.6,1.5,5.4,5.3,4.1,8.3c-2.7,5.9-4,8.8-6.7,14.7c-1.4,3-5.1,4.2-8.3,2.8
			c-66.3-26.1-134.4-26.1-200.7,0c-3.3,1.4-7,0.2-8.3-2.8c-2.7-5.9-4-8.8-6.7-14.7c-1.4-3,0.4-6.7,4.1-8.3c7.1-3,10.7-4.4,17.9-6.9
			c3.7-1.3,5.9-4.8,4.9-7.9c-2-6.1-2.9-9.2-4.9-15.3c-1-3.1,1.5-6.7,5.6-7.9C94.8,3,153,3,211.7,18.9 M213.7,12.2
			C153.6-4.1,94.1-4.1,34.1,12.2C25,14.8,19.6,22.9,22,29.7c2,5.7,3,8.5,5,14.2c-6.9,2.4-10.3,3.8-17.1,6.6
			C1.8,53.9-2,62.3,1.1,68.7c2.8,5.8,4.2,8.7,7.1,14.5c3.1,6.4,11.2,8.9,18.1,6c64.5-25.4,130.7-25.4,195.3,0
			c6.9,2.9,14.9,0.4,18.1-6c2.8-5.8,4.2-8.7,7.1-14.5c3.1-6.4-0.7-14.8-8.8-18.2c-6.8-2.9-10.2-4.2-17.1-6.6c2-5.7,3-8.5,5-14.2
			C228.2,22.9,222.8,14.8,213.7,12.2L213.7,12.2z"/>
	</g>
	<g id="ruleta_activacion">
		<path fill="#FFFFFF" d="M95.4,31.3c-2.8,0.3-5.1-0.1-6.8-1.2s-2.8-2.8-3.1-5.2c-0.5-3.5-0.7-5.3-1.2-8.9c2.3-0.3,3.4-0.4,5.7-0.7
			c0.4,3.5,0.6,5.3,1,8.8c0.2,1.4,0.6,2.3,1.3,2.8c0.7,0.5,1.6,0.7,2.8,0.6c1.1-0.1,2-0.5,2.6-1.1c0.6-0.7,0.8-1.7,0.7-3
			c-0.3-3.5-0.5-5.3-0.8-8.8c2.3-0.2,3.4-0.3,5.7-0.4c0.2,3.6,0.4,5.4,0.6,8.9c0.2,2.4-0.5,4.3-2,5.7S98.2,31,95.4,31.3z"/>
		<path fill="#FFFFFF" d="M108,30c-0.4-6.4-0.5-9.6-0.9-16.1c2.3-0.1,3.4-0.2,5.7-0.3c0.2,5,0.3,7.5,0.4,12.5
			c3.7-0.1,5.5-0.2,9.2-0.2c0,1.4,0,2.2,0,3.6C116.8,29.6,113.9,29.7,108,30z"/>
		<path fill="#FFFFFF" d="M147.2,30.5c0.4-5,0.6-7.5,1-12.4c-2.4-0.2-3.7-0.3-6.1-0.4c0.1-1.4,0.1-2.2,0.2-3.6
			c7.2,0.4,10.9,0.8,18.1,1.6c-0.2,1.4-0.3,2.2-0.4,3.6c-2.4-0.3-3.6-0.4-6.1-0.7c-0.5,5-0.7,7.5-1.2,12.4
			C150.4,30.8,149.3,30.7,147.2,30.5z"/>
		<path fill="#FFFFFF" d="M24.4,76.8c-2.4-6-3.7-8.9-6.1-14.9c3.3-1.3,4.9-2,8.2-3.2c1.9-0.7,3.7-1,5.4-0.9c1.7,0.1,3.1,0.6,4.3,1.4
			c1.2,0.9,2.1,2.1,2.6,3.6c0.5,1.6,0.6,3,0.1,4.4c-0.4,1.4-1.2,2.7-2.4,3.8c-1.2,1.1-2.7,2-4.5,2.7C29,74.9,27.5,75.5,24.4,76.8z
			 M27.7,71.5c1.2-0.5,1.8-0.7,2.9-1.1c1-0.4,1.8-0.8,2.3-1.4c0.6-0.6,1-1.3,1.2-2c0.2-0.8,0.1-1.6-0.2-2.4c-0.3-0.9-0.8-1.6-1.4-2
			c-0.6-0.5-1.4-0.7-2.2-0.8c-0.9-0.1-1.8,0.1-2.8,0.5c-1.2,0.5-1.8,0.7-3,1.2C25.8,66.6,26.4,68.2,27.7,71.5z"/>
		<path fill="#FFFFFF" d="M56.4,62.3c-3.6,0.9-5.4,1.4-8.9,2.5c-0.3-1.1-0.6-2-0.8-2.8c3-0.9,4.6-1.3,7.7-2.2
			c-0.4-1.3-0.5-2-0.9-3.3c-3.1,0.8-4.8,1.3-7.8,2.2c-0.2-0.8-0.5-1.6-0.8-2.6c3.5-1.1,5.3-1.6,8.9-2.5c-0.4-1.4-0.5-2.1-0.9-3.4
			c-5.6,1.5-8.4,2.3-14,4.1c2,6.1,2.9,9.2,4.9,15.3c5.4-1.7,8-2.5,13.5-3.9C57,64.4,56.8,63.7,56.4,62.3z"/>
		<path fill="#FFFFFF" d="M79.8,60.9c2-0.3,3-0.5,5.1-0.8c-4-5.9-6.1-8.8-10.5-14.6c-2,0.4-3,0.6-5.1,1c-1.9,7-2.8,10.4-4.4,17.4
			c2-0.5,2.9-0.7,4.9-1.1c0.3-1.2,0.5-2.3,0.7-3.4c2.6-0.5,4.6-0.9,7.3-1.4C78.5,58.9,79.2,59.8,79.8,60.9z M71.4,55.8
			c0.4-1.7,0.8-3.5,1.3-5.5c1.2,1.7,2.2,3.2,3.2,4.6C74.3,55.3,73,55.5,71.4,55.8z"/>
		<path fill="#FFFFFF" d="M94.6,59.1c-1.4,0.2-2.6,0.1-3.8-0.2c-1.2-0.3-2.3-0.7-3.2-1.3c-1-0.6-1.8-1.4-2.4-2.3
			c-0.6-0.9-1-2-1.2-3.2s-0.1-2.4,0.2-3.5c0.3-1.1,0.9-2.1,1.7-2.9c0.8-0.9,1.8-1.6,2.9-2.1c1.2-0.6,2.5-0.9,3.9-1.1
			c1.7-0.2,3.2-0.1,4.6,0.3c1.4,0.4,2.6,1,3.5,2c-1.2,1.2-1.8,1.7-3,2.9c-0.6-0.6-1.3-1-2.1-1.2s-1.5-0.3-2.4-0.2
			c-0.7,0.1-1.4,0.3-2,0.6c-0.6,0.3-1.1,0.7-1.5,1.1c-0.4,0.5-0.7,1-0.8,1.6C89,50,88.9,50.7,89,51.4c0.1,0.7,0.3,1.3,0.6,1.8
			c0.3,0.5,0.7,1,1.2,1.3c0.5,0.3,1,0.6,1.7,0.7c0.6,0.1,1.3,0.2,2,0.1c0.8-0.1,1.5-0.3,2.2-0.7c0.7-0.4,1.2-0.9,1.7-1.6
			c1.4,0.9,2,1.4,3.4,2.3c-0.8,1.1-1.8,1.9-3,2.6C97.6,58.5,96.2,58.9,94.6,59.1z"/>
		<path fill="#FFFFFF" d="M107.5,57.7c-0.3-5-0.5-7.5-0.8-12.5c-2.2,0.1-3.3,0.2-5.6,0.4c-0.1-1.4-0.2-2.2-0.3-3.6
			c6.6-0.5,9.9-0.7,16.5-0.9c0,1.4,0.1,2.2,0.1,3.6c-2.2,0.1-3.3,0.1-5.6,0.2c0.2,5,0.3,7.5,0.5,12.5
			C110.4,57.5,109.4,57.5,107.5,57.7z"/>
		<path fill="#FFFFFF" d="M119.5,57.2c-0.1-6.4-0.2-9.7-0.3-16.1c2.1,0,3.1,0,5.2,0c0,6.4,0,9.7,0,16.1
			C122.5,57.1,121.5,57.2,119.5,57.2z"/>
		<path fill="#FFFFFF" d="M141.3,41.6c-2.4,4.2-3.8,6.7-5.6,10.2c-1.5-3.6-2.6-6.3-4.5-10.6c-2.2-0.1-3.4-0.1-5.6-0.1
			c3.1,6.5,4.6,9.7,7.3,16.2c1.9,0.1,2.9,0.1,4.8,0.2c3.3-6.3,5.1-9.4,8.7-15.6C144.3,41.8,143.3,41.7,141.3,41.6z"/>
		<path fill="#FFFFFF" d="M158.4,59.4c2,0.3,3,0.4,5.1,0.7c-2.1-6.8-3.2-10.2-5.7-17c-2-0.3-3.1-0.4-5.1-0.6
			c-3.9,6.1-5.8,9.1-9.3,15.3c2,0.1,3,0.2,5,0.4c0.6-1.1,1.1-2.1,1.7-3c2.6,0.3,4.6,0.5,7.4,0.8C157.8,57.1,158.1,58.2,158.4,59.4z
			 M151.9,52.1c0.9-1.6,1.8-3.1,2.9-4.9c0.6,2,1.2,3.7,1.7,5.4C154.8,52.4,153.5,52.3,151.9,52.1z"/>
		<path fill="#FFFFFF" d="M173.1,62.1c-1.3-0.3-2.6-0.7-3.6-1.3c-1.1-0.6-2-1.3-2.7-2.2c-0.7-0.9-1.3-1.9-1.6-2.9
			c-0.3-1.1-0.4-2.2-0.2-3.5c0.2-1.2,0.6-2.3,1.3-3.2c0.7-0.9,1.5-1.7,2.5-2.3c1-0.6,2.2-1,3.4-1.2c1.3-0.2,2.6-0.1,4.1,0.1
			c1.7,0.3,3.1,0.9,4.3,1.7s2.1,1.8,2.8,2.9c-1.5,0.7-2.3,1.1-3.8,1.9c-0.4-0.7-1-1.3-1.6-1.8c-0.6-0.5-1.4-0.8-2.2-0.9
			c-0.7-0.1-1.4-0.2-2.1-0.1c-0.7,0.1-1.2,0.3-1.7,0.6c-0.5,0.3-0.9,0.7-1.3,1.3c-0.3,0.5-0.6,1.1-0.7,1.8c-0.1,0.7-0.1,1.3,0,1.9
			c0.1,0.6,0.4,1.1,0.7,1.6c0.4,0.5,0.8,0.9,1.4,1.2c0.6,0.3,1.2,0.5,1.9,0.7c0.8,0.2,1.6,0.1,2.3,0c0.7-0.2,1.5-0.5,2.1-1
			c1,1.3,1.6,1.9,2.6,3.2c-1.1,0.8-2.2,1.3-3.6,1.6C176.1,62.5,174.7,62.4,173.1,62.1z"/>
		<path fill="#FFFFFF" d="M182.5,63.8c1.4-6.3,2.2-9.4,3.6-15.7c2,0.5,3.1,0.7,5.1,1.2c-1.6,6.2-2.3,9.4-3.9,15.6
			C185.4,64.5,184.4,64.2,182.5,63.8z"/>
		<path fill="#FFFFFF" d="M199.1,68.5c-1.3-0.4-2.5-1-3.5-1.7c-1-0.7-1.9-1.6-2.5-2.5c-0.6-1-1.1-2-1.3-3.1
			c-0.2-1.1-0.2-2.3,0.1-3.4c0.3-1.2,0.8-2.2,1.6-3c0.8-0.8,1.7-1.5,2.7-2c1.1-0.5,2.3-0.8,3.6-0.8c1.3-0.1,2.7,0.1,4.1,0.6
			c1.4,0.4,2.7,1,3.8,1.8c1.1,0.8,1.9,1.7,2.6,2.7c0.6,1,1,2.1,1.2,3.2c0.2,1.1,0,2.3-0.3,3.4c-0.4,1.2-1,2.1-1.8,3
			c-0.8,0.8-1.7,1.4-2.8,1.9c-1.1,0.4-2.2,0.7-3.5,0.7C201.7,69.1,200.4,68.9,199.1,68.5z M200.1,64.9c0.6,0.2,1.3,0.3,1.9,0.2
			c0.6,0,1.2-0.2,1.7-0.4c0.5-0.3,1-0.6,1.4-1.1c0.4-0.5,0.7-1,0.9-1.7c0.2-0.7,0.3-1.3,0.2-1.9c-0.1-0.6-0.3-1.2-0.6-1.7
			c-0.3-0.5-0.7-1-1.2-1.4c-0.5-0.4-1.1-0.7-1.8-0.9c-0.7-0.2-1.3-0.3-2-0.2c-0.6,0-1.2,0.2-1.8,0.5s-1,0.6-1.4,1.1
			c-0.4,0.5-0.7,1-0.9,1.7c-0.2,0.7-0.2,1.3-0.2,1.9c0.1,0.6,0.3,1.2,0.6,1.7c0.3,0.5,0.7,1,1.2,1.3
			C198.9,64.4,199.5,64.7,200.1,64.9z M201.7,50.8c1.7-0.9,2.6-1.4,4.4-2.3c2,0.6,3,0.9,4.9,1.5c-2.4,0.7-3.6,1-5.9,1.8
			C203.7,51.4,203,51.2,201.7,50.8z"/>
		<g>
			<path fill="#FFFFFF" d="M81.6,25.6c0.6-1,0.8-2.1,0.6-3.3c-0.3-1.8-1.2-3.2-2.9-4c-1.7-0.8-4.1-1-7-0.5c-3.6,0.6-5.3,0.9-8.9,1.7
				c1.3,6.3,1.9,9.5,3.2,15.8c2.1-0.4,3.2-0.6,5.3-1c-0.3-1.7-0.5-2.8-0.8-4.2c0.9-0.2,1.8-0.3,2.9-0.5c1.4,1.2,2.5,2.1,4.2,3.6
				c2.3-0.4,3.5-0.5,5.8-0.9c-2-1.8-3.1-2.8-4.9-4.4C80.2,27.3,81.1,26.5,81.6,25.6z M76,25c-0.5,0.5-1.3,0.8-2.5,1
				c-1.2,0.2-2.1,0.4-3,0.5c-0.3-1.6-0.5-3-0.8-4.6c0.9-0.2,1.8-0.3,3.1-0.5c1.2-0.2,2.1-0.1,2.7,0.2c0.7,0.3,1,0.8,1.1,1.6
				C76.7,23.9,76.5,24.5,76,25z"/>
			<path fill="#FFFFFF" d="M124.7,29.6c6.1,0,9.2,0.1,15.4,0.5c0.1-1.4,0.1-2.1,0.2-3.5c-4.1-0.2-6.1-0.3-10.1-0.4
				c0-1.1,0-2.1,0.1-2.9c3.4,0.1,5.2,0.1,8.7,0.3c0.1-1.4,0.1-2,0.2-3.4c-3.5-0.2-5.4-0.2-8.8-0.3c0-0.8,0-1.7,0.1-2.7
				c4,0.1,6,0.2,10.1,0.4c0.1-1.4,0.1-2.1,0.2-3.5c-6.3-0.3-9.5-0.4-15.8-0.5C124.8,19.9,124.8,23.1,124.7,29.6z"/>
			<path fill="#FFFFFF" d="M167.9,16.6c-4.5,5.9-6.6,8.8-10.7,14.8c2.2,0.3,3.3,0.4,5.5,0.7c0.7-1.1,1.3-2,1.9-2.9
				c2.9,0.4,5.1,0.7,8.1,1.3c0.3,1,0.6,2.1,1,3.4c2.2,0.4,3.3,0.6,5.6,1c-2.1-7-3.3-10.5-5.8-17.4C171.2,17.1,170.1,17,167.9,16.6z
				 M166.7,26.2c1-1.5,2.1-3,3.3-4.7c0.7,2,1.2,3.7,1.7,5.5C169.9,26.6,168.4,26.4,166.7,26.2z"/>
			<path fill="#FFFFFF" d="M228,61.3c-1.3,3.2-2.1,5.2-3.2,7.9c-1.4-3.8-2.5-6.5-4.5-10.9c-1.6-0.6-2.5-0.9-4.1-1.5
				c-2.1,6.1-3.2,9.1-5.3,15.2c1.8,0.6,2.7,1,4.6,1.7c1.2-3.3,2-5.2,3-8c1.6,3.8,2.6,6.4,4.2,10.9c1.5,0.6,2.3,0.9,3.8,1.6
				c2.5-5.9,3.8-8.9,6.3-14.8C230.9,62.5,230,62.1,228,61.3z"/>
		</g>
	</g>
	<g id="g1">
		<animate attributeName="opacity"
			dur="2s"
			begin="0s"
			repeatCount="indefinite"
			values=".25; .25; 1"
			keyTimes="0; 0.5; 1" />
		<path fill="#fbb03b" d="M218.3,83.9c0.4-1,1.6-1.5,2.7-1l0,0c1.1,0.4,1.6,1.6,1.2,2.7l0,0c-0.4,1-1.6,1.5-2.7,1l0,0
			C218.4,86.1,217.9,84.9,218.3,83.9z"/>
		<path fill="#fbb03b" d="M170.1,70c0.2-1.1,1.3-1.8,2.4-1.6l0,0c1.1,0.2,1.9,1.3,1.7,2.4l0,0c-0.2,1.1-1.3,1.8-2.4,1.5l0,0
			C170.7,72.1,169.9,71.1,170.1,70z"/>
		<path fill="#fbb03b" d="M120.5,65.8c0-1.1,0.9-2,2.1-2l0,0c1.2,0,2.1,0.9,2.1,2l0,0c0,1.1-0.9,2-2.1,2l0,0
			C121.5,67.8,120.6,66.9,120.5,65.8z"/>
		<path fill="#fbb03b" d="M236.9,56.1L236.9,56.1c-1.2-0.6-1.7-1.9-1.1-2.8l0,0c0.6-1,2-1.2,3.1-0.6l0,0c1.2,0.6,1.7,1.9,1.1,2.9
			l0,0c-0.5,0.9-1.8,1.2-2.9,0.7l0,0C237,56.1,237,56.1,236.9,56.1z"/>
		<path fill="#fbb03b" d="M71.1,71.3c-0.2-1.1,0.5-2.1,1.6-2.4l0,0c1.1-0.2,2.2,0.5,2.5,1.5l0,0c0.2,1.1-0.5,2.1-1.7,2.4l0,0
			C72.4,73,71.3,72.4,71.1,71.3z"/>
		<path fill="#fbb03b" d="M25.9,87.5C25.8,87.5,25.8,87.5,25.9,87.5L25.9,87.5c-1.1,0.5-2.3,0-2.8-1l0,0c-0.4-1,0.1-2.2,1.2-2.7l0,0
			c0,0,0,0,0,0l0,0c0,0,0,0,0,0l0,0c1.1-0.5,2.3,0,2.7,1l0,0C27.5,85.9,27,87,25.9,87.5L25.9,87.5C25.9,87.5,25.9,87.5,25.9,87.5z"
			/>
		<path fill="#fbb03b" d="M11.4,53.6c-0.4-1,0.2-2.3,1.5-2.8l0,0c1.2-0.5,2.6-0.1,3,0.9l0,0c0.4,1-0.3,2.2-1.5,2.7l0,0
			C13.2,55.1,11.8,54.7,11.4,53.6z"/>
		<path fill="#fbb03b" d="M216.2,19.6c-1.1-0.8-1.3-2.1-0.4-2.9l0,0c0.9-0.8,2.5-0.7,3.6,0.1l0,0c1.1,0.8,1.3,2.1,0.4,2.9l0,0
			c-0.6,0.6-1.7,0.7-2.6,0.4l0,0C216.8,20,216.5,19.8,216.2,19.6z"/>
		<path fill="#fbb03b" d="M31.4,17.1c-0.5-1,0.2-2.2,1.6-2.8l0,0l0,0l0,0c1.4-0.5,2.8-0.2,3.3,0.8l0,0c0.5,1-0.2,2.2-1.6,2.8l0,0
			c-0.1,0-0.2,0.1-0.3,0.1l0,0C33.2,18.4,31.9,18.1,31.4,17.1z"/>
		<path fill="#fbb03b" d="M154.5,4.6c0.1-1.1,1.4-1.9,2.8-1.7l0,0c1.4,0.2,2.5,1.2,2.4,2.3l0,0c-0.1,1.1-1.4,1.8-2.8,1.7l0,0
			C155.5,6.7,154.4,5.7,154.5,4.6z"/>
		<path fill="#fbb03b" d="M92.5,4.7c-0.1-1.1,1-2.1,2.4-2.2l0,0c1.4-0.1,2.7,0.7,2.8,1.8l0,0c0.1,1.1-1,2.1-2.4,2.2l0,0
			C93.8,6.5,92.6,5.8,92.5,4.7z"/>
	</g>
	<g id="g2">
		<animate attributeName="opacity"
			dur="2s"
			begin="0.5s"
			repeatCount="indefinite"
			values=".25; .25; 1"
			keyTimes="0; 0.5; 1" />
		<path fill="#fbb03b" d="M182.3,72.6c0.3-1.1,1.4-1.7,2.5-1.4l0,0c1.1,0.3,1.8,1.4,1.6,2.4l0,0c-0.3,1.1-1.4,1.7-2.5,1.4l0,0
			C182.8,74.7,182.1,73.6,182.3,72.6z"/>
		<path fill="#fbb03b" d="M133,65.9c0-1.1,1-2,2.2-1.9l0,0c1.2,0.1,2.1,1,2,2.1l0,0c-0.1,1.1-1,1.9-2.2,1.9l0,0
			C133.8,67.9,132.9,67,133,65.9z"/>
		<path fill="#fbb03b" d="M230.5,86.6c-0.6-1-0.3-2.2,0.7-2.7l0,0c1-0.5,2.3-0.1,3,0.8l0,0c0.6,1,0.3,2.2-0.7,2.7l0,0
			c-0.6,0.3-1.3,0.3-1.9,0l0,0C231.1,87.2,230.7,86.9,230.5,86.6z"/>
		<path fill="#fbb03b" d="M222.3,48.1c0.4-1,1.7-1.5,3-1l0,0c1.3,0.5,2,1.7,1.6,2.7l0,0c-0.4,1-1.7,1.5-3,1l0,0
			C222.6,50.4,221.9,49.2,222.3,48.1z"/>
		<path fill="#fbb03b" d="M83.3,69c-0.2-1.1,0.6-2.1,1.8-2.3l0,0c1.1-0.2,2.2,0.6,2.4,1.7l0,0c0.2,1.1-0.6,2.1-1.8,2.3l0,0
			C84.6,70.8,83.5,70.1,83.3,69z"/>
		<path fill="#fbb03b" d="M34.9,81.8c-0.4-1,0.2-2.2,1.3-2.6l0,0c1.1-0.4,2.3,0.1,2.7,1.2l0,0c0.4,1-0.2,2.2-1.3,2.6l0,0
			C36.5,83.3,35.3,82.8,34.9,81.8z"/>
		<path fill="#fbb03b" d="M4,64c-1.3,0-2.1-0.9-2-2.1l0,0c0.2-1.1,1.4-2.1,2.7-2l0,0c1.3,0,2.1,1,1.9,2.1l0,0
			c-0.1,0.8-0.7,1.4-1.5,1.8l0,0C4.8,63.9,4.4,64,4,64z"/>
		<path fill="#fbb03b" d="M26.2,28.6c-1.4,0.2-2.6-0.4-2.7-1.5l0,0c-0.1-1.1,0.9-2.2,2.3-2.5l0,0c1.4-0.2,2.6,0.5,2.7,1.6l0,0
			c0.1,1-0.7,1.9-1.9,2.3l0,0C26.5,28.5,26.4,28.5,26.2,28.6z"/>
		<path fill="#fbb03b" d="M200.6,12.5c0.3-1.1,1.6-1.6,3-1.3l0,0c1.4,0.4,2.3,1.5,2,2.6l0,0c-0.3,1.1-1.6,1.6-3,1.3l0,0
			C201.2,14.7,200.3,13.6,200.6,12.5z"/>
		<path fill="#fbb03b" d="M139,3.5c0.1-1.1,1.3-1.9,2.7-1.9l0,0c1.5,0.1,2.6,1,2.5,2.1l0,0c-0.1,1.1-1.3,1.9-2.7,1.8l0,0
			C140.1,5.5,139,4.6,139,3.5z"/>
		<path fill="#fbb03b" d="M77,6.6c-0.2-1.1,0.9-2.1,2.3-2.3l0,0C80.7,4,82,4.8,82.2,5.9l0,0c0.1,1.1-0.9,2.1-2.3,2.3l0,0
			C78.4,8.4,77.2,7.7,77,6.6z"/>
	</g>
	<g id="g3">
		<animate attributeName="opacity"
			dur="2s"
			begin="1s"
			repeatCount="indefinite"
			values=".25; .25; 1"
			keyTimes="0; 0.5; 1" />
		<path fill="#fbb03b" d="M194.5,75.7c0.3-1.1,1.5-1.7,2.6-1.3l0,0c1.1,0.3,1.8,1.5,1.4,2.5l0,0c-0.3,1.1-1.5,1.6-2.6,1.3l0,0
			C194.8,77.9,194.2,76.8,194.5,75.7z"/>
		<path fill="#fbb03b" d="M145.4,66.7c0.1-1.1,1.1-1.9,2.3-1.8l0,0c1.2,0.1,2,1.1,1.9,2.2l0,0c-0.1,1.1-1.1,1.9-2.3,1.8l0,0
			C146.2,68.7,145.3,67.8,145.4,66.7z"/>
		<path fill="#fbb03b" d="M236.9,75c0.5-1,1.8-1.4,2.9-0.8l0,0c1.1,0.5,1.7,1.8,1.2,2.8l0,0c-0.5,1-1.8,1.4-2.9,0.8l0,0
			C237,77.3,236.5,76,236.9,75z"/>
		<path fill="#fbb03b" d="M95.7,67.3c-0.1-1.1,0.7-2.1,1.9-2.2l0,0c1.2-0.1,2.2,0.7,2.3,1.8l0,0c0.1,1.1-0.7,2.1-1.9,2.2l0,0
			C96.8,69.2,95.8,68.4,95.7,67.3z"/>
		<path fill="#fbb03b" d="M46.8,77.7c-0.3-1.1,0.3-2.2,1.4-2.5l0,0c1.1-0.3,2.3,0.2,2.6,1.3l0,0c0.3,1.1-0.3,2.2-1.4,2.5l0,0
			C48.3,79.3,47.2,78.7,46.8,77.7z"/>
		<path fill="#fbb03b" d="M5.9,74.1c-0.5-1,0.1-2.2,1.2-2.8l0,0c1.1-0.5,2.5-0.2,2.9,0.8l0,0c0.5,1-0.1,2.2-1.2,2.8l0,0
			C7.7,75.5,6.4,75.1,5.9,74.1z"/>
		<path fill="#fbb03b" d="M27.3,38.7c-0.4-1,0.4-2.2,1.7-2.7l0,0c1.3-0.4,2.6,0.1,3,1.1l0,0c0.3,1-0.4,2.2-1.7,2.7l0,0
			C29,40.2,27.7,39.7,27.3,38.7z"/>
		<path fill="#fbb03b" d="M215.4,40.1c0.3-1,1.7-1.5,3-1.1l0,0c1.3,0.4,2,1.6,1.7,2.7l0,0c-0.4,1-1.7,1.5-3,1.1l0,0
			C215.8,42.3,215,41.1,215.4,40.1z"/>
		<path fill="#fbb03b" d="M185.3,9.1c0.2-1.1,1.5-1.7,3-1.4l0,0c1.4,0.3,2.4,1.4,2.2,2.5l0,0c-0.2,1.1-1.6,1.7-3,1.4l0,0
			C186.1,11.3,185.1,10.2,185.3,9.1z"/>
		<path fill="#fbb03b" d="M123.5,3.1c0-1.1,1.2-2,2.6-2l0,0c1.4,0,2.6,0.9,2.6,2l0,0c0,1.1-1.2,2-2.6,2l0,0
			C124.6,5.1,123.5,4.2,123.5,3.1z"/>
		<path fill="#fbb03b" d="M61.7,9.3c-0.2-1.1,0.8-2.2,2.2-2.5l0,0c1.4-0.3,2.7,0.4,2.9,1.5l0,0c0.2,1.1-0.8,2.2-2.2,2.4l0,0
			C63.2,11,61.9,10.3,61.7,9.3z"/>
	</g>
	<g id="g4">
		<animate attributeName="opacity"
			dur="2s"
			begin="1.5s"
			repeatCount="indefinite"
			values=".25; .25; 1"
			keyTimes="0; 0.5; 1" />
		<path fill="#fbb03b" d="M206.5,79.5c0.4-1,1.6-1.6,2.7-1.2l0,0c1.1,0.4,1.7,1.5,1.3,2.6l0,0c-0.4,1-1.6,1.5-2.7,1.2l0,0
			C206.7,81.7,206.1,80.5,206.5,79.5z"/>
		<path fill="#fbb03b" d="M157.8,68c0.1-1.1,1.2-1.8,2.4-1.7l0,0c1.1,0.2,1.9,1.2,1.8,2.3l0,0c-0.2,1.1-1.2,1.8-2.4,1.7l0,0
			C158.4,70.1,157.6,69.1,157.8,68z"/>
		<path fill="#fbb03b" d="M108.1,66.2c-0.1-1.1,0.8-2,2-2.1l0,0c1.2-0.1,2.1,0.8,2.2,1.9l0,0c0.1,1.1-0.8,2-2,2.1l0,0
			C109.1,68.2,108.2,67.4,108.1,66.2z"/>
		<path fill="#fbb03b" d="M241.6,64.6C241.6,64.6,241.6,64.6,241.6,64.6c0.2-1.1,1.4-1.7,2.7-1.4l0,0c1.3,0.3,2.1,1.5,1.9,2.6l0,0
			l0,0l0,0c-0.2,1.1-1.4,1.7-2.7,1.3l0,0c-0.2-0.1-0.3-0.1-0.5-0.2l0,0C242,66.5,241.4,65.5,241.6,64.6z"/>
		<path fill="#fbb03b" d="M58.9,74.2c-0.3-1.1,0.4-2.2,1.5-2.5l0,0c1.1-0.3,2.3,0.3,2.5,1.4l0,0c0.3,1.1-0.4,2.2-1.5,2.4l0,0
			C60.3,75.9,59.2,75.2,58.9,74.2z"/>
		<path fill="#fbb03b" d="M11.8,85.1c-0.8-0.8-0.7-2.1,0.2-2.9l0,0c0.9-0.8,2.3-0.8,3.1,0l0,0c0.8,0.8,0.7,2.1-0.2,2.9l0,0
			c-0.2,0.2-0.4,0.3-0.6,0.4l0,0C13.5,85.8,12.5,85.7,11.8,85.1z"/>
		<path fill="#fbb03b" d="M24.8,48.4c-0.4-1,0.3-2.2,1.6-2.7l0,0c1.3-0.4,2.6,0,2.9,1.1l0,0c0.4,1-0.3,2.2-1.6,2.7l0,0
			C26.5,49.9,25.2,49.4,24.8,48.4z"/>
		<path fill="#fbb03b" d="M219.1,28.8c0.3-1,1.7-1.5,3.1-1.1l0,0c1.3,0.4,2.1,1.7,1.8,2.7l0,0c-0.4,1-1.7,1.5-3.1,1.1l0,0
			C219.6,31,218.8,29.8,219.1,28.8z"/>
		<path fill="#fbb03b" d="M170,6.5c0.2-1.1,1.4-1.8,2.9-1.6l0,0c1.4,0.2,2.4,1.3,2.3,2.4l0,0c-0.2,1.1-1.5,1.8-2.9,1.6l0,0
			C170.8,8.6,169.8,7.6,170,6.5z"/>
		<path fill="#fbb03b" d="M107.9,3.5c-0.1-1.1,1.1-2,2.5-2.1l0,0c1.4-0.1,2.6,0.8,2.7,1.9l0,0c0,1.1-1.1,2-2.5,2.1l0,0
			C109.2,5.4,108,4.6,107.9,3.5z"/>
		<path fill="#fbb03b" d="M46.4,12.7c-0.3-1.1,0.7-2.2,2.1-2.6l0,0c1.4-0.3,2.8,0.3,3,1.3l0,0c0.3,1.1-0.7,2.2-2.1,2.5l0,0
			C48,14.3,46.7,13.7,46.4,12.7z"/>
	</g>
</g>
</svg>
